# xmcd CD database file
#
# Track frame offsets:
#	150
#	31645
#	64646
#	97947
#	131015
#	163867
#	196703
#	229552
#
# Disc length: 3497 seconds
#
# Revision: 0
# Processed by: cddbd v1.5.1PL0 Copyright (c) Steve Scherf et al.
# Submitted via: CDex 1.51
#
DISCID=570da708
DTITLE=The Wolfman - Flute Of The Pacific
DYEAR=00000
DGENRE=New Age
TTITLE0=Dreams Of The Ocean
TTITLE1=When There Was Light
TTITLE2=Simple Delights
TTITLE3=Palm Beach At Night
TTITLE4=Mother And Son
TTITLE5=In The Dungeon Of Love
TTITLE6=Will You Wait For Me
TTITLE7=For The Master
EXTD=YEAR: 00000
EXTT0=
EXTT1=
EXTT2=
EXTT3=
EXTT4=
EXTT5=
EXTT6=
EXTT7=
PLAYORDER=
